<?xml version="1.0" encoding="UTF-8" standalone="no"?>
<!-- Created with Inkscape (http://www.inkscape.org/) -->

<svg
   width="210mm"
   height="297mm"
   viewBox="0 0 210 297"
   version="1.1"
   id="svg1"
   sodipodi:docname="extender support.svg"
   inkscape:version="1.4.3 (0d15f75042, 2025-12-25)"
   xmlns:inkscape="http://www.inkscape.org/namespaces/inkscape"
   xmlns:sodipodi="http://sodipodi.sourceforge.net/DTD/sodipodi-0.dtd"
   xmlns="http://www.w3.org/2000/svg"
   xmlns:svg="http://www.w3.org/2000/svg">
  <sodipodi:namedview
     id="namedview1"
     pagecolor="#ffffff"
     bordercolor="#000000"
     borderopacity="0.25"
     inkscape:showpageshadow="2"
     inkscape:pageopacity="0.0"
     inkscape:pagecheckerboard="0"
     inkscape:deskcolor="#d1d1d1"
     inkscape:document-units="mm"
     inkscape:zoom="0.45546131"
     inkscape:cx="385.32362"
     inkscape:cy="779.42954"
     inkscape:window-width="1536"
     inkscape:window-height="891"
     inkscape:window-x="0"
     inkscape:window-y="0"
     inkscape:window-maximized="1"
     inkscape:current-layer="layer1" />
  <defs
     id="defs1" />
  <g
     inkscape:label="Layer 1"
     inkscape:groupmode="layer"
     id="layer1">
    <path
       id="rect1"
       style="fill:none;stroke:#000000;stroke-width:0.2644"
       d="M 6.8739734,39.773806 H 63.741773 v 5 l -33.371804,13.243016 -3.574602,1.437411 -1.059626,3.394918 -8.861768,22.924655 H 6.8739734 v -1 h -3 v -15 h 3 v -10 h -3 v -15 h 3 z"
       sodipodi:nodetypes="ccccccccccccccccc"
       inkscape:label="sostegno" />
    <path
       id="rect1-7"
       style="fill:none;stroke:#000000;stroke-width:0.2644"
       d="m 74.624524,39.773806 h 56.867796 v 5 l -33.3718,13.243016 -3.574602,1.437411 -1.059626,3.394918 -8.861768,22.924655 h -10 v -1 h -3 v -15 h 3 v -10 h -3 v -15 h 3 z"
       sodipodi:nodetypes="ccccccccccccccccc"
       inkscape:label="sostegno" />
    <path
       id="rect1-6"
       style="fill:none;stroke:#000000;stroke-width:0.2644"
       d="m 140.31635,39.773806 h 56.8678 v 5 l -33.37181,13.243016 -3.5746,1.437411 -1.05963,3.394918 -8.86176,22.924655 h -10 v -1 h -3 v -15 h 3 v -10 h -3 v -15 h 3 z"
       sodipodi:nodetypes="ccccccccccccccccc"
       inkscape:label="sostegno" />
    <path
       id="rect1-4"
       style="fill:none;stroke:#000000;stroke-width:0.2644"
       d="M 9.1880458,94.823771 H 54.188 v 5.000005 l -21.503954,13.243014 -3.5746,1.43741 -1.05963,3.39492 -8.86177,22.92466 H 9.1880458 v -1 h -3 v -15 h 3 v -10 h -3 V 99.823776 h 3 z"
       sodipodi:nodetypes="ccccccccccccccccc"
       inkscape:label="sostegno stretto" />
    <path
       id="rect1-4-3"
       style="fill:none;stroke:#000000;stroke-width:0.2644"
       d="m 64.073227,94.823771 h 44.999953 v 5.000001 l -21.503953,13.243008 -3.5746,1.43741 -1.05963,3.39492 -8.86177,22.92466 h -10 v -1 h -3 v -15 h 3 v -10 h -3 V 99.823772 h 3 z"
       sodipodi:nodetypes="ccccccccccccccccc"
       inkscape:label="sostegno stretto" />
    <path
       id="rect2"
       style="fill:none;stroke:#1a1a1a;stroke-width:0.264"
       d="m 0.132,149.24158 h 15 v -3 h 15 v 3 h 45 v -3 h 15 v 3 h 65 v -3 h 15 v 3 h 45 v -3 h 15 v 3 h 15 v 65.45639 h -245 z"
       sodipodi:nodetypes="ccccccccccccccccccccc"
       inkscape:label="mensola" />
    <path
       id="rect2-2"
       style="fill:none;stroke:#1a1a1a;stroke-width:0.264"
       d="m 0.132,220.56356 h 15.000003 v -3 h 15 v 3 h 45 v -3 h 15 v 3 H 155.132 v -3 h 15 v 3 h 45 v -3 h 15 v 3 h 15 v 45.00002 h -245 z"
       sodipodi:nodetypes="ccccccccccccccccccccc"
       inkscape:label="mensola stretta" />
    <g
       id="g7">
      <g
         id="g3"
         inkscape:label="incasso verticale"
         transform="translate(-108.34687,266.12936)">
        <path
           id="rect3"
           style="fill:none;stroke:#1a1a1a;stroke-width:0.212899"
           inkscape:label="incasso verticale"
           d="m 177.1503,121.58209 h 3.2871 v 15.2871 h -3.2871 z" />
        <path
           id="rect3-3"
           style="fill:none;stroke:#1a1a1a;stroke-width:0.212899"
           inkscape:label="incasso verticale"
           d="m 177.1503,146.72545 h 3.2871 v 15.2871 h -3.2871 z" />
      </g>
      <g
         id="g3-4"
         inkscape:label="incasso verticale"
         transform="translate(-33.110517,266.12936)">
        <path
           id="rect3-4"
           style="fill:none;stroke:#1a1a1a;stroke-width:0.212899"
           inkscape:label="incasso verticale"
           d="m 177.1503,121.58209 h 3.2871 v 15.2871 h -3.2871 z" />
        <path
           id="rect3-3-3"
           style="fill:none;stroke:#1a1a1a;stroke-width:0.212899"
           inkscape:label="incasso verticale"
           d="m 177.1503,146.72545 h 3.2871 v 15.2871 h -3.2871 z" />
      </g>
      <g
         id="g3-8"
         inkscape:label="incasso verticale"
         transform="translate(35.945737,266.12936)">
        <path
           id="rect3-8"
           style="fill:none;stroke:#1a1a1a;stroke-width:0.212899"
           inkscape:label="incasso verticale"
           d="m 177.1503,121.58209 h 3.2871 v 15.2871 h -3.2871 z" />
        <path
           id="rect3-3-4"
           style="fill:none;stroke:#1a1a1a;stroke-width:0.212899"
           inkscape:label="incasso verticale"
           d="m 177.1503,146.72545 h 3.2871 v 15.2871 h -3.2871 z" />
      </g>
      <g
         id="g6"
         transform="translate(1.2282495,1.6987595)">
        <g
           id="g3-2"
           inkscape:label="incasso verticale"
           transform="translate(-109.5751,398.4306)">
          <path
             id="rect3-0"
             style="fill:none;stroke:#1a1a1a;stroke-width:0.212899"
             inkscape:label="incasso verticale"
             d="m 177.1503,121.58209 h 3.2871 v 15.2871 h -3.2871 z" />
          <path
             id="rect3-3-6"
             style="fill:none;stroke:#1a1a1a;stroke-width:0.212899"
             inkscape:label="incasso verticale"
             d="m 177.1503,146.72545 h 3.2871 v 15.2871 h -3.2871 z" />
        </g>
        <g
           id="g3-4-8"
           inkscape:label="incasso verticale"
           transform="translate(-34.338746,398.4306)">
          <path
             id="rect3-4-9"
             style="fill:none;stroke:#1a1a1a;stroke-width:0.212899"
             inkscape:label="incasso verticale"
             d="m 177.1503,121.58209 h 3.2871 v 15.2871 h -3.2871 z" />
          <path
             id="rect3-3-3-2"
             style="fill:none;stroke:#1a1a1a;stroke-width:0.212899"
             inkscape:label="incasso verticale"
             d="m 177.1503,146.72545 h 3.2871 v 15.2871 h -3.2871 z" />
        </g>
        <g
           id="g3-8-6"
           inkscape:label="incasso verticale"
           transform="translate(34.717507,398.4306)">
          <path
             id="rect3-8-6"
             style="fill:none;stroke:#1a1a1a;stroke-width:0.212899"
             inkscape:label="incasso verticale"
             d="m 177.1503,121.58209 h 3.2871 v 15.2871 h -3.2871 z" />
          <path
             id="rect3-3-4-4"
             style="fill:none;stroke:#1a1a1a;stroke-width:0.212899"
             inkscape:label="incasso verticale"
             d="m 177.1503,146.72545 h 3.2871 v 15.2871 h -3.2871 z" />
        </g>
      </g>
      <rect
         style="fill:none;stroke:#1a1a1a;stroke-width:0.259449;stroke-dasharray:none"
         id="rect4"
         width="289.74054"
         height="260.00455"
         x="0.12972443"
         y="312.7352"
         inkscape:label="quadro" />
      <g
         id="g5"
         inkscape:label="incasso orizzontale"
         transform="translate(-237.8606,377.60917)">
        <path
           id="rect5"
           style="fill:none;stroke:#1a1a1a;stroke-width:0.303517"
           inkscape:label="incasso orizzontale"
           d="m 273.01236,136.14759 h 15.31 v 3.19648 h -15.31 z"
           sodipodi:nodetypes="ccccc" />
        <path
           id="rect5-1"
           style="fill:none;stroke:#1a1a1a;stroke-width:0.303517"
           inkscape:label="incasso orizzontale"
           d="m 473.10836,136.14759 h 15.747 v 3.19648 h -15.747 z"
           sodipodi:nodetypes="ccccc" />
        <path
           id="rect5-0"
           style="fill:none;stroke:#1a1a1a;stroke-width:0.303517"
           inkscape:label="incasso orizzontale"
           d="m 413.01036,136.14759 h 15.747 v 3.19648 h -15.747 z"
           sodipodi:nodetypes="ccccc" />
        <path
           id="rect5-4"
           style="fill:none;stroke:#1a1a1a;stroke-width:0.303517"
           inkscape:label="incasso orizzontale"
           d="m 333.11736,136.14759 h 15.297 v 3.19648 h -15.297 z"
           sodipodi:nodetypes="ccccc" />
      </g>
      <g
         id="g5-9"
         inkscape:label="incasso orizzontale"
         transform="translate(-237.8606,243.60917)">
        <path
           id="rect5-3"
           style="fill:none;stroke:#1a1a1a;stroke-width:0.303517"
           inkscape:label="incasso orizzontale"
           d="m 273.01236,136.14759 h 15.31 v 3.19648 h -15.31 z"
           sodipodi:nodetypes="ccccc" />
        <path
           id="rect5-1-7"
           style="fill:none;stroke:#1a1a1a;stroke-width:0.303517"
           inkscape:label="incasso orizzontale"
           d="m 473.10836,136.14759 h 15.747 v 3.19648 h -15.747 z"
           sodipodi:nodetypes="ccccc" />
        <path
           id="rect5-0-4"
           style="fill:none;stroke:#1a1a1a;stroke-width:0.303517"
           inkscape:label="incasso orizzontale"
           d="m 413.01036,136.14759 h 15.747 v 3.19648 h -15.747 z"
           sodipodi:nodetypes="ccccc" />
        <path
           id="rect5-4-5"
           style="fill:none;stroke:#1a1a1a;stroke-width:0.303517"
           inkscape:label="incasso orizzontale"
           d="m 333.11736,136.14759 h 15.297 v 3.19648 h -15.297 z"
           sodipodi:nodetypes="ccccc" />
      </g>
      <circle
         style="fill:none;stroke:#1a1a1a;stroke-width:0.493457;stroke-dasharray:none"
         id="path6"
         cx="9.7460003"
         cy="319.89145"
         r="3.2532718"
         inkscape:label="foro" />
      <circle
         style="fill:none;stroke:#1a1a1a;stroke-width:0.493457;stroke-dasharray:none"
         id="path6-7"
         cx="59.5"
         cy="446.14999"
         r="3.2532718"
         inkscape:label="foro"
         inkscape:transform-center-x="-2.3236515"
         inkscape:transform-center-y="-11.618257" />
      <circle
         style="fill:none;stroke:#1a1a1a;stroke-width:0.493457;stroke-dasharray:none"
         id="path6-8"
         cx="279.37299"
         cy="320.73541"
         r="3.2532718"
         inkscape:label="foro" />
      <circle
         style="fill:none;stroke:#1a1a1a;stroke-width:0.493457;stroke-dasharray:none"
         id="path6-0"
         cx="189.5"
         cy="446.14999"
         r="3.2532718"
         inkscape:label="foro" />
      <circle
         style="fill:none;stroke:#1a1a1a;stroke-width:0.493457;stroke-dasharray:none"
         id="path6-4"
         cx="189.5"
         cy="535.04797"
         r="3.2532718"
         inkscape:label="foro" />
      <circle
         style="fill:none;stroke:#1a1a1a;stroke-width:0.493457;stroke-dasharray:none"
         id="path6-77"
         cx="59.5"
         cy="535.04791"
         r="3.2532718"
         inkscape:label="foro" />
    </g>
    <path
       id="rect1-4-5"
       style="fill:none;stroke:#000000;stroke-width:0.2644"
       d="m 117.85203,94.823771 h 44.99995 v 5.000005 l -21.50395,13.243014 -3.5746,1.43741 -1.05963,3.39491 -8.86177,22.92466 h -10 v -1 h -3 v -15 h 3 v -10 h -3 V 99.823776 h 3 z"
       sodipodi:nodetypes="ccccccccccccccccc"
       inkscape:label="sostegno stretto" />
  </g>
</svg>
